<svg width="43" height="64" viewBox="0 0 43 64" fill="none" xmlns="http://www.w3.org/2000/svg">
<g id="Group 1">
<path id="Vector" d="M21.4737 64L3.91334 58.8018L0 12H43L39.0826 58.7946L21.4737 64Z" fill="#264DE4"/>
<path id="Vector_2" d="M36.7623 55.8123L40 16H23V60L36.7623 55.8123Z" fill="#2965F1"/>
<path id="Vector_3" d="M10.8619 33.4375L11.2908 39.0884H22V33.4375H10.8619ZM10 22L10.435 27.6509H22V22H10ZM22 48.1136L21.979 48.1201L16.6494 46.4208L16.3086 41.914H11.5046L12.175 50.7868L21.978 54L22 53.9929V48.1136Z" fill="#EBEBEB"/>
<path id="Vector_4" d="M11 0H17.1763V2.95716H13.5829V5.91432H17.1766V8.8713H11V0ZM18.4117 0H24.5881V2.57143H20.9946V3.08568H24.5881V9H18.4119V6.29969H22.0054V5.78544H18.4115L18.4117 0ZM25.8236 0H32V2.57143H28.4065V3.08568H32V9H25.8236V6.29969H29.4171V5.78544H25.8237V0H25.8236Z" fill="white"/>
<path id="Vector_5" d="M34.1353 33.4385L35 22H23.0001V27.6514H29.7502L29.3143 33.4385H23.0001V39.0899H28.899L28.3428 46.4193L23 48.1205V54L32.8206 50.7892L32.8926 49.8343L34.0184 34.956L34.1353 33.4385Z" fill="white"/>
</g>
</svg>
