<svg width="41" height="65" viewBox="0 0 41 65" fill="none" xmlns="http://www.w3.org/2000/svg">
<g id="Component 1">
<path id="Vector" d="M41 13L37.2648 59.7946L20.4749 65L3.73132 59.8018L0 13H41Z" fill="#E44D26"/>
<path id="Vector_2" d="M21 61L33.9527 56.8123L37 17H21V61Z" fill="#F16529"/>
<path id="Vector_3" d="M13.6659 28.0041H21V22H8L8.12402 23.6108L9.39832 40.1565H21V34.1524H14.1397L13.6659 28.0041ZM14.8343 43.1586H9.62997L10.3562 52.586L20.9761 56L21 55.9925V49.7457L20.9773 49.7526L15.2035 47.9471L14.8343 43.1586Z" fill="#EBEBEB"/>
<path id="Vector_4" d="M4 0H6.57385V2.97201H8.92838V0H11.5024V9H8.92854V5.98628H6.57401V9H4.00016L4 0ZM14.8869 2.98462H12.6214V0H19.7282V2.98462H17.4613V9H14.8874V2.98462H14.8869ZM20.8561 0H23.5399L25.1907 3.16236L26.84 0H29.5249V9H26.9615V4.53911L25.1907 7.7391H25.1463L23.3745 4.53911V9H20.8561V0ZM30.8058 0H33.3804V6.02521H37V9H30.8056V0H30.8058Z" fill="white"/>
<path id="Vector_5" d="M21.0002 40.158H27.3906L26.788 47.9455L21 49.7531V56L31.639 52.5885L31.717 51.574L32.9366 35.7658L33.0632 34.1534H21.0002V40.158ZM21.0002 27.9899V28.0046H33.5354L33.6394 26.655L33.876 23.6109L34 22H21.0002V27.9899Z" fill="white"/>
</g>
</svg>
