<svg width="51" height="55" viewBox="0 0 51 55" fill="none" xmlns="http://www.w3.org/2000/svg">
<g id="vscode-icons:file-type-js-official">
<path id="Vector" d="M3.1875 3.4375H47.8125V51.5625H3.1875V3.4375Z" fill="#F5DE19"/>
<path id="Vector_2" d="M33.1644 41.0352C33.5446 41.8681 34.1353 42.5681 34.8685 43.0547C35.6016 43.5412 36.4473 43.7945 37.3081 43.7852C39.0453 43.7852 40.1561 42.8484 40.1561 41.5508C40.1561 40.0039 39.015 39.4505 37.1025 38.5481L36.0538 38.0634C33.0257 36.673 31.0176 34.9319 31.0176 31.2503C31.0176 27.8592 33.4082 25.2759 37.1583 25.2759C38.3723 25.1814 39.5852 25.4744 40.6457 26.1184C41.7063 26.7624 42.5676 27.7289 43.1221 28.8973L39.8438 31.1575C39.6302 30.5781 39.2584 30.0825 38.7777 29.7362C38.297 29.39 37.73 29.2095 37.1519 29.2188C36.8997 29.1915 36.645 29.2213 36.4041 29.306C36.1631 29.3908 35.9412 29.5288 35.7524 29.7112C35.5637 29.8936 35.4122 30.1164 35.3077 30.3654C35.2032 30.6144 35.1479 30.8842 35.1454 31.1575C35.1454 32.5136 35.9247 33.0636 37.7241 33.9075L38.7728 34.3922C42.3364 36.0405 44.3509 37.7197 44.3509 41.4958C44.3509 45.5675 41.3849 47.7984 37.4021 47.7984C35.8503 47.9051 34.303 47.5251 32.947 46.7044C31.591 45.8837 30.4842 44.6573 29.7601 43.1733L33.1644 41.0352ZM18.3505 41.427C19.0087 42.6869 19.6079 43.7525 21.0487 43.7525C22.4257 43.7525 23.2959 43.1716 23.2959 40.9114V25.5338H27.489V40.9716C27.489 45.6534 24.939 47.7847 21.2272 47.7847C19.9151 47.862 18.6121 47.5094 17.4893 46.7732C16.3666 46.0369 15.4767 44.9515 14.9366 43.6597L18.3505 41.427Z" fill="black"/>
</g>
</svg>
