<svg width="49" height="55" viewBox="0 0 49 55" fill="none" xmlns="http://www.w3.org/2000/svg">
<g id="vscode-icons:file-type-reactjs">
<path id="Vector" d="M24.5 31.7522C26.6142 31.7522 28.3281 29.8284 28.3281 27.4553C28.3281 25.0822 26.6142 23.1584 24.5 23.1584C22.3858 23.1584 20.6719 25.0822 20.6719 27.4553C20.6719 29.8284 22.3858 31.7522 24.5 31.7522Z" fill="#00D8FF"/>
<path id="Vector_2" d="M24.5 37.3072C19.8988 37.4321 15.3091 36.7359 10.9025 35.2447C8.86689 34.5204 6.96831 33.3794 5.30272 31.8794C4.66714 31.3669 4.13785 30.7062 3.75117 29.9426C3.36448 29.179 3.12955 28.3305 3.0625 27.4553C3.0625 24.6142 5.84325 21.8298 10.5013 20.008C15.0257 18.3936 19.753 17.6112 24.5 17.6911C29.1836 17.6176 33.8476 18.3859 38.3149 19.9667C40.2754 20.6682 42.1096 21.7541 43.7325 23.1739C44.3572 23.6624 44.8786 24.2992 45.2596 25.0391C45.6407 25.779 45.8721 26.6039 45.9375 27.4553C45.9375 30.4081 42.8291 33.4005 37.8219 35.2602C33.5006 36.7028 29.0077 37.3932 24.5 37.3072ZM24.5 19.7467C19.9585 19.6786 15.4363 20.4224 11.1031 21.9502C6.81559 23.6294 4.89388 25.9256 4.89388 27.4502C4.89388 29.0452 6.95953 31.5528 11.4951 33.2939C15.7107 34.7133 20.1001 35.3741 24.5 35.2516C28.8126 35.3381 33.1116 34.6831 37.2477 33.3094C41.9563 31.558 44.1 29.0469 44.1 27.4553C44.0227 26.9091 43.8454 26.3869 43.5792 25.9215C43.313 25.4562 42.9637 25.0579 42.5534 24.7517C41.1014 23.4921 39.4629 22.5298 37.7132 21.9089C33.4395 20.4029 28.9789 19.6729 24.5 19.7467Z" fill="#00D8FF"/>
<path id="Vector_3" d="M15.8025 48.8864C15.0882 48.9048 14.3823 48.7103 13.7568 48.3227C11.564 46.903 10.8045 42.8089 11.7248 37.3691C12.7395 32.1631 14.4976 27.1757 16.931 22.5998C19.2137 18.0092 22.136 13.8581 25.5872 10.3039C27.108 8.74793 28.8623 7.50671 30.769 6.63781C31.4586 6.27505 32.2108 6.08701 32.9724 6.08701C33.734 6.08701 34.4863 6.27505 35.1759 6.63781C37.4559 8.1125 38.2108 12.6294 37.1466 18.4267C36.1006 23.3502 34.3882 28.0645 32.069 32.4053C29.8666 36.9417 27.0363 41.0567 23.6839 44.5964C22.1079 46.2134 20.2789 47.489 18.2893 48.3587C17.4927 48.6906 16.652 48.869 15.8025 48.8864ZM18.5174 23.6208C16.1962 28.0024 14.5112 32.7709 13.5255 37.7472C12.6788 42.7573 13.4919 45.7703 14.674 46.5369C15.899 47.3327 18.8727 46.5781 22.4834 43.0375C25.6837 39.6463 28.3852 35.7074 30.4872 31.3672C32.7089 27.2173 34.3516 22.7101 35.3581 18.0022C36.3595 12.5452 35.4944 9.20391 34.2663 8.40984C33.8061 8.21189 33.3142 8.12328 32.8218 8.14961C32.3295 8.17594 31.8474 8.31664 31.406 8.56281C29.7088 9.34888 28.1486 10.4648 26.7969 11.8594C23.4996 15.2639 20.7082 19.2379 18.5281 23.6311L18.5174 23.6208Z" fill="#00D8FF"/>
<path id="Vector_4" d="M33.1929 48.9087C31.1181 48.9087 28.4828 47.4994 25.7388 44.8508C22.2272 41.2642 19.2555 37.0638 16.9387 32.4122C14.5358 27.8994 12.7916 22.9841 11.7723 17.8526C11.3302 15.5951 11.2483 13.2674 11.5304 10.9777C11.5956 10.1283 11.826 9.30526 12.2054 8.5667C12.5848 7.82813 13.1039 7.19199 13.7262 6.70312C16.0031 5.22328 19.8665 6.74437 23.8094 10.6734C27.0872 14.1491 29.8707 18.1684 32.0629 22.5912C34.4643 26.9987 36.2268 31.8064 37.2844 36.8345C37.7455 39.175 37.8167 41.591 37.4942 43.9605C37.4175 44.8343 37.1734 45.6792 36.7785 46.4371C36.3836 47.1951 35.8474 47.8483 35.2065 48.3519C34.5912 48.7347 33.8963 48.9269 33.1929 48.9087ZM18.5236 31.3775C20.7461 35.8229 23.5848 39.843 26.9332 43.2867C30.377 46.6125 33.1087 47.3275 34.2832 46.5523C35.5082 45.7531 36.4116 42.4909 35.4806 37.2126C34.4606 32.4121 32.7701 27.823 30.4719 23.6156C28.38 19.3825 25.7231 15.5338 22.5936 12.2031C18.8819 8.50437 15.8714 7.67765 14.6449 8.47515C14.2626 8.82385 13.9489 9.25774 13.7236 9.74941C13.4982 10.2411 13.3662 10.7799 13.3357 11.3317C13.0922 13.3737 13.1715 15.448 13.57 17.4591C14.5504 22.3663 16.2232 27.0662 18.5251 31.3809L18.5236 31.3775Z" fill="#00D8FF"/>
</g>
</svg>
