<svg width="100" height="75" viewBox="0 0 100 75" fill="none" xmlns="http://www.w3.org/2000/svg">
<path d="M86.1078 43.109C82.6193 43.127 79.5871 43.9672 77.0484 45.2092C76.1166 43.3643 75.1851 41.7208 75.021 40.5152C74.838 39.1091 74.6191 38.2505 74.838 36.5702C75.0574 34.8898 76.0437 32.497 76.0253 32.3145C76.0073 32.132 75.8059 31.2734 73.7969 31.2554C71.7878 31.237 70.0526 31.6388 69.8516 32.1684C69.6507 32.6979 69.2672 33.9036 69.0114 35.1452C68.6643 36.972 64.9933 43.492 62.8929 46.9075C62.2169 45.5746 61.6324 44.4054 61.5043 43.474C61.3218 42.0679 61.1024 41.2093 61.3218 39.529C61.5412 37.8486 62.5275 35.4562 62.5091 35.2733C62.4907 35.0908 62.2897 34.2322 60.2806 34.2142C58.2712 34.1958 56.5359 34.5976 56.3354 35.1272C56.1344 35.6571 55.9151 36.8988 55.4952 38.1044C55.0749 39.31 50.1981 50.1957 48.9196 53.0081C48.4029 54.1464 47.8609 55.273 47.294 56.3871C47.294 56.3871 47.2756 56.442 47.2208 56.5332C47.0427 56.8826 46.8601 57.2296 46.6732 57.5743V57.5923C46.399 58.0859 46.1067 58.5422 45.9606 58.5422C45.851 58.5422 45.65 57.2273 45.9971 55.4373C46.7276 51.6567 48.4629 45.7756 48.4448 45.5746C48.4448 45.465 48.7735 44.4423 47.3124 43.9123C45.8874 43.3828 45.3762 44.2593 45.2481 44.2593C45.1204 44.2593 45.0288 44.57 45.0288 44.57C45.0288 44.57 46.6183 37.9583 41.997 37.9583C39.1113 37.9583 35.1292 41.118 33.1565 43.9672C30.9141 45.1874 28.6735 46.4112 26.4349 47.6384C25.3577 48.2412 24.2433 48.844 23.2021 49.41C23.1288 49.3372 23.056 49.2455 22.9827 49.1727C17.3935 43.2002 7.05556 38.981 7.49388 30.9632C7.65839 28.0408 8.66273 20.3696 27.3483 11.0549C42.7275 3.475 54.9656 5.57523 57.0843 10.2328C60.1161 16.8813 50.5272 29.228 34.636 31.0176C28.572 31.6937 25.3937 29.3557 24.5903 28.4791C23.7501 27.5657 23.622 27.5108 23.3114 27.6938C22.8002 27.9679 23.1288 28.7897 23.3114 29.2644C23.7865 30.5061 25.7407 32.6979 29.0468 33.7759C31.9693 34.7253 39.0744 35.2553 47.6775 31.931C57.3033 28.2049 64.8288 17.8491 62.6187 9.17365C60.4083 0.370105 45.7961 -2.53386 31.9693 2.37907C23.7501 5.30183 14.8364 9.90414 8.42536 15.895C0.808621 23.0178 -0.397052 29.2096 0.096107 31.8033C1.86819 41.0084 14.5626 46.9992 19.6403 51.4374C19.3845 51.5835 19.1468 51.7116 18.9462 51.8212C16.4072 53.0813 6.72652 58.1403 4.31557 63.4919C1.57597 69.5556 4.75428 73.903 6.85461 74.487C13.3754 76.2954 20.0786 73.0444 23.6768 67.6744C27.2751 62.3047 26.8367 55.3276 25.1747 52.1315C25.1563 52.095 25.1383 52.0582 25.1015 52.0218C25.7592 51.6383 26.4349 51.2365 27.0925 50.853C28.3013 50.1385 29.5254 49.4503 30.764 48.7888C30.1427 50.4876 29.686 52.5149 29.4671 55.4373C29.1929 58.8712 30.5991 63.3274 32.444 65.0806C33.2662 65.8483 34.2341 65.8663 34.8554 65.8663C37.0105 65.8663 37.9788 64.0763 39.0564 61.9577C40.3714 59.3643 41.5586 56.3507 41.5586 56.3507C41.5586 56.3507 40.0792 64.4966 44.0977 64.4966C45.5587 64.4966 47.0382 62.5969 47.6959 61.6291V61.6471C47.6959 61.6471 47.7323 61.5923 47.8056 61.4646C47.9517 61.2272 48.043 61.0807 48.043 61.0807V61.0447C48.6274 60.0216 49.9427 57.702 51.897 53.8482C54.4176 48.8805 56.847 42.6707 56.847 42.6707C56.847 42.6707 57.0663 44.1865 57.8149 46.707C58.2536 48.1864 59.1662 49.8119 59.8972 51.3826C59.3127 52.2047 58.9473 52.661 58.9473 52.661L58.9657 52.6794C58.4905 53.3003 57.9794 53.9759 57.413 54.6339C55.4219 57.008 53.0478 59.7298 52.7188 60.5147C52.3349 61.4462 52.4265 62.1222 53.1575 62.6702C53.6871 63.072 54.6365 63.1265 55.6048 63.072C57.3949 62.944 58.6551 62.5057 59.2759 62.2319C60.2442 61.8848 61.3766 61.3549 62.4358 60.5696C64.3904 59.1266 65.5773 57.0628 65.468 54.3417C65.4132 52.8439 64.92 51.3461 64.3172 49.9396C64.5001 49.6842 64.6642 49.4284 64.8472 49.1727C67.9338 44.6612 70.3267 39.7115 70.3267 39.7115C70.3267 39.7115 70.5461 41.2273 71.2947 43.7482C71.6601 45.0267 72.4091 46.4148 73.0663 47.7661C70.1622 50.1225 68.3721 52.862 67.7329 54.652C66.5824 57.9762 67.4771 59.4736 69.1759 59.8207C69.9429 59.9852 71.0389 59.6197 71.8427 59.2727C72.8654 58.9441 74.0711 58.3781 75.2219 57.5375C77.1765 56.0949 79.0575 54.0856 78.9478 51.3645C78.893 50.1225 78.5643 48.8985 78.1076 47.7113C80.5734 46.689 83.7517 46.1226 87.8063 46.5973C96.501 47.62 98.2178 53.0445 97.8888 55.328C97.5601 57.6108 95.7336 58.8528 95.1312 59.2363C94.5279 59.6201 94.3274 59.7478 94.3822 60.0216C94.4551 60.4235 94.7473 60.4054 95.2589 60.3322C95.9714 60.2045 99.8254 58.4874 99.9895 54.2865C100.264 48.9169 95.1492 43.0541 86.1078 43.109ZM19.0375 65.7202C16.1514 68.8616 12.1333 70.0488 10.398 69.0445C8.53503 67.9666 9.26557 63.3274 12.8089 60.0036C14.9641 57.9762 17.7405 56.0945 19.5855 54.9442C20.0054 54.6884 20.6266 54.3233 21.3756 53.8666C21.5033 53.7934 21.5765 53.757 21.5765 53.757L22.0148 53.4828C23.3114 58.2316 22.0697 62.4144 19.0375 65.7202ZM40.0427 51.4374C39.038 53.885 36.9377 60.1497 35.6591 59.8026C34.5632 59.5104 33.8871 54.7616 35.4398 50.0677C36.2252 47.7113 37.8872 44.8986 38.8555 43.803C40.4262 42.0495 42.1615 41.4647 42.5814 42.1775C43.1114 43.109 40.6636 49.9032 40.0427 51.4374ZM57.3765 59.7294C56.9562 59.9487 56.5547 60.0948 56.3718 59.9852C56.2441 59.9119 56.5547 59.6197 56.5547 59.6197C56.5547 59.6197 58.7283 57.2821 59.5865 56.2226C60.0801 55.6018 60.6641 54.8713 61.2854 54.0492V54.2865C61.2854 57.0812 58.5818 58.9625 57.3761 59.7294M70.7463 56.6793C70.4356 56.46 70.4905 55.7295 71.5316 53.4464C71.9335 52.5513 72.883 51.0539 74.509 49.611C74.6915 50.1954 74.8196 50.7617 74.8012 51.2913C74.7828 54.8165 72.2626 56.1314 70.7463 56.6793Z" fill="#CD6799"/>
</svg>
